<?xml version="1.0" encoding="UTF-8"?>
<svg width="24px" height="24px" viewBox="0 0 24 24" version="1.1" xmlns="http://www.w3.org/2000/svg">
    <path d="M12 0C5.373 0 0 5.373 0 12s5.373 12 12 12 12-5.373 12-12S18.627 0 12 0zm5.883 15.725c-.613.613-1.843.919-3.69.919H9.806c-1.847 0-3.077-.306-3.69-.919-.613-.613-.919-1.843-.919-3.69V9.806c0-1.847.306-3.077.919-3.69.613-.613 1.843-.919 3.69-.919h4.387c1.847 0 3.077.306 3.69.919.613.613.919 1.843.919 3.69v2.229c0 1.847-.306 3.077-.919 3.69zM11.229 7.5h1.542v3.064h3.064v1.542h-3.064v3.064h-1.542v-3.064H8.165v-1.542h3.064V7.5z" fill="#ffffff"/>
</svg>